<svg width="27" height="27" viewBox="0 0 27 27" fill="none" xmlns="http://www.w3.org/2000/svg">
<g clip-path="url(#clip0_236:49)">
<path d="M19.4727 10.8002C19.4727 10.8889 19.4552 10.9766 19.4213 11.0585C19.3874 11.1404 19.3377 11.2148 19.275 11.2775C19.2123 11.3402 19.1379 11.3899 19.056 11.4238C18.9741 11.4578 18.8863 11.4752 18.7977 11.4752H12.0477C11.9591 11.4752 11.8713 11.4578 11.7894 11.4238C11.7075 11.3899 11.6331 11.3402 11.5704 11.2775C11.5077 11.2148 11.458 11.1404 11.4241 11.0585C11.3902 10.9766 11.3727 10.8889 11.3727 10.8002C11.3727 10.7116 11.3902 10.6238 11.4241 10.5419C11.458 10.46 11.5077 10.3856 11.5704 10.3229C11.6331 10.2602 11.7075 10.2105 11.7894 10.1766C11.8713 10.1427 11.9591 10.1252 12.0477 10.1252H18.7977C18.8863 10.1252 18.9741 10.1427 19.056 10.1766C19.1379 10.2105 19.2123 10.2602 19.275 10.3229C19.3377 10.3856 19.3874 10.46 19.4213 10.5419C19.4552 10.6238 19.4727 10.7116 19.4727 10.8002ZM9.3477 10.1252C9.2142 10.1252 9.0837 10.1648 8.97269 10.239C8.86169 10.3132 8.77518 10.4186 8.72409 10.5419C8.673 10.6653 8.65963 10.801 8.68568 10.9319C8.71172 11.0628 8.77601 11.1831 8.87041 11.2775C8.96481 11.3719 9.08508 11.4362 9.21602 11.4623C9.34696 11.4883 9.48268 11.4749 9.60602 11.4238C9.72936 11.3728 9.83478 11.2862 9.90895 11.1752C9.98312 11.0642 10.0227 10.9337 10.0227 10.8002C10.0227 10.6212 9.95159 10.4495 9.825 10.3229C9.69842 10.1963 9.52673 10.1252 9.3477 10.1252ZM18.7977 12.8252H12.0477C11.8687 12.8252 11.697 12.8963 11.5704 13.0229C11.4438 13.1495 11.3727 13.3212 11.3727 13.5002C11.3727 13.6792 11.4438 13.8509 11.5704 13.9775C11.697 14.1041 11.8687 14.1752 12.0477 14.1752H18.7977C18.9767 14.1752 19.1484 14.1041 19.275 13.9775C19.4016 13.8509 19.4727 13.6792 19.4727 13.5002C19.4727 13.3212 19.4016 13.1495 19.275 13.0229C19.1484 12.8963 18.9767 12.8252 18.7977 12.8252ZM9.3477 12.8252C9.2142 12.8252 9.0837 12.8648 8.97269 12.939C8.86169 13.0132 8.77518 13.1186 8.72409 13.2419C8.673 13.3653 8.65963 13.501 8.68568 13.6319C8.71172 13.7628 8.77601 13.8831 8.87041 13.9775C8.96481 14.0719 9.08508 14.1362 9.21602 14.1623C9.34696 14.1883 9.48268 14.1749 9.60602 14.1238C9.72936 14.0728 9.83478 13.9862 9.90895 13.8752C9.98312 13.7642 10.0227 13.6337 10.0227 13.5002C10.0227 13.3212 9.95159 13.1495 9.825 13.0229C9.69842 12.8963 9.52673 12.8252 9.3477 12.8252ZM18.7977 15.5252H12.0477C11.8687 15.5252 11.697 15.5963 11.5704 15.7229C11.4438 15.8495 11.3727 16.0212 11.3727 16.2002C11.3727 16.3792 11.4438 16.5509 11.5704 16.6775C11.697 16.8041 11.8687 16.8752 12.0477 16.8752H18.7977C18.9767 16.8752 19.1484 16.8041 19.275 16.6775C19.4016 16.5509 19.4727 16.3792 19.4727 16.2002C19.4727 16.0212 19.4016 15.8495 19.275 15.7229C19.1484 15.5963 18.9767 15.5252 18.7977 15.5252ZM9.3477 15.5252C9.2142 15.5252 9.0837 15.5648 8.97269 15.639C8.86169 15.7132 8.77518 15.8186 8.72409 15.9419C8.673 16.0653 8.65963 16.201 8.68568 16.3319C8.71172 16.4628 8.77601 16.5831 8.87041 16.6775C8.96481 16.7719 9.08508 16.8362 9.21602 16.8623C9.34696 16.8883 9.48268 16.8749 9.60602 16.8238C9.72936 16.7728 9.83478 16.6862 9.90895 16.5752C9.98312 16.4642 10.0227 16.3337 10.0227 16.2002C10.0227 16.1116 10.0052 16.0238 9.97132 15.9419C9.9374 15.86 9.88768 15.7856 9.825 15.7229C9.76232 15.6602 9.68791 15.6105 9.60602 15.5766C9.52412 15.5427 9.43635 15.5252 9.3477 15.5252ZM18.7977 18.2252H12.0477C11.8687 18.2252 11.697 18.2963 11.5704 18.4229C11.4438 18.5495 11.3727 18.7212 11.3727 18.9002C11.3727 19.0792 11.4438 19.2509 11.5704 19.3775C11.697 19.5041 11.8687 19.5752 12.0477 19.5752H18.7977C18.9767 19.5752 19.1484 19.5041 19.275 19.3775C19.4016 19.2509 19.4727 19.0792 19.4727 18.9002C19.4727 18.7212 19.4016 18.5495 19.275 18.4229C19.1484 18.2963 18.9767 18.2252 18.7977 18.2252ZM9.3477 18.2252C9.2142 18.2252 9.0837 18.2648 8.97269 18.339C8.86169 18.4132 8.77518 18.5186 8.72409 18.6419C8.673 18.7653 8.65963 18.901 8.68568 19.0319C8.71172 19.1628 8.77601 19.2831 8.87041 19.3775C8.96481 19.4719 9.08508 19.5362 9.21602 19.5623C9.34696 19.5883 9.48268 19.5749 9.60602 19.5238C9.72936 19.4728 9.83478 19.3862 9.90895 19.2752C9.98312 19.1642 10.0227 19.0337 10.0227 18.9002C10.0227 18.8116 10.0052 18.7238 9.97132 18.6419C9.9374 18.56 9.88768 18.4856 9.825 18.4229C9.76232 18.3602 9.68791 18.3105 9.60602 18.2766C9.52412 18.2427 9.43635 18.2252 9.3477 18.2252ZM18.7977 20.9252H12.0477C11.8687 20.9252 11.697 20.9963 11.5704 21.1229C11.4438 21.2495 11.3727 21.4212 11.3727 21.6002C11.3727 21.7792 11.4438 21.9509 11.5704 22.0775C11.697 22.2041 11.8687 22.2752 12.0477 22.2752H18.7977C18.9767 22.2752 19.1484 22.2041 19.275 22.0775C19.4016 21.9509 19.4727 21.7792 19.4727 21.6002C19.4727 21.4212 19.4016 21.2495 19.275 21.1229C19.1484 20.9963 18.9767 20.9252 18.7977 20.9252ZM9.3477 20.9252C9.2142 20.9252 9.0837 20.9648 8.97269 21.039C8.86169 21.1132 8.77518 21.2186 8.72409 21.3419C8.673 21.4653 8.65963 21.601 8.68568 21.7319C8.71172 21.8628 8.77601 21.9831 8.87041 22.0775C8.96481 22.1719 9.08508 22.2362 9.21602 22.2623C9.34696 22.2883 9.48268 22.2749 9.60602 22.2238C9.72936 22.1728 9.83478 22.0862 9.90895 21.9752C9.98312 21.8642 10.0227 21.7337 10.0227 21.6002C10.0227 21.5116 10.0052 21.4238 9.97132 21.3419C9.9374 21.26 9.88768 21.1856 9.825 21.1229C9.76232 21.0602 9.68791 21.0105 9.60602 20.9766C9.52412 20.9427 9.43635 20.9252 9.3477 20.9252ZM24.8727 5.40023V23.6252C24.8701 24.5195 24.5136 25.3764 23.8813 26.0088C23.2489 26.6412 22.392 26.9976 21.4977 27.0002H6.6477C5.75341 26.9976 4.8965 26.6412 4.26414 26.0088C3.63178 25.3764 3.27535 24.5195 3.27271 23.6252V5.40023C3.27535 4.50593 3.63178 3.64902 4.26414 3.01666C4.8965 2.3843 5.75341 2.02787 6.6477 2.02523H9.69575C9.85156 1.81673 10.0536 1.64725 10.2861 1.53012C10.5185 1.41299 10.7749 1.35141 11.0352 1.35023H12.1653C12.3044 0.955446 12.5626 0.613559 12.9042 0.371718C13.2459 0.129877 13.6541 0 14.0727 0C14.4913 0 14.8995 0.129877 15.2412 0.371718C15.5828 0.613559 15.841 0.955446 15.9801 1.35023H17.1102C17.3705 1.35141 17.6269 1.41299 17.8594 1.53012C18.0918 1.64725 18.2939 1.81673 18.4497 2.02523H21.4977C22.392 2.02787 23.2489 2.3843 23.8813 3.01666C24.5136 3.64902 24.8701 4.50593 24.8727 5.40023ZM13.3977 2.02523C13.3977 2.15873 13.4373 2.28923 13.5115 2.40024C13.5856 2.51124 13.6911 2.59775 13.8144 2.64884C13.9377 2.69993 14.0735 2.7133 14.2044 2.68726C14.3353 2.66121 14.4556 2.59692 14.55 2.50252C14.6444 2.40812 14.7087 2.28785 14.7347 2.15691C14.7608 2.02597 14.7474 1.89025 14.6963 1.76691C14.6452 1.64357 14.5587 1.53815 14.4477 1.46398C14.3367 1.38981 14.2062 1.35023 14.0727 1.35023C13.8937 1.35036 13.7221 1.42153 13.5956 1.54808C13.469 1.67464 13.3978 1.84625 13.3977 2.02523ZM10.6977 5.06273C10.6989 5.15185 10.7349 5.23699 10.7979 5.30002C10.8609 5.36305 10.9461 5.399 11.0352 5.40023H17.1102C17.1993 5.399 17.2845 5.36305 17.3475 5.30002C17.4105 5.23699 17.4465 5.15185 17.4477 5.06273V3.03773C17.4465 2.9486 17.4105 2.86346 17.3475 2.80043C17.2845 2.73741 17.1993 2.70145 17.1102 2.70023H15.9801C15.841 3.095 15.5828 3.43689 15.2412 3.67873C14.8995 3.92057 14.4913 4.05045 14.0727 4.05045C13.6541 4.05045 13.2459 3.92057 12.9042 3.67873C12.5626 3.43689 12.3044 3.095 12.1653 2.70023H11.0352C10.9461 2.70145 10.8609 2.73741 10.7979 2.80043C10.7349 2.86346 10.6989 2.9486 10.6977 3.03773V5.06273ZM23.5227 5.40023C23.5221 4.86333 23.3086 4.34859 22.929 3.96895C22.5493 3.58931 22.0346 3.37578 21.4977 3.37523H18.7977V5.06273C18.7965 5.50989 18.6183 5.93839 18.3021 6.25458C17.9859 6.57078 17.5574 6.74897 17.1102 6.75023H11.0352C10.588 6.74897 10.1595 6.57078 9.84335 6.25458C9.52715 5.93839 9.34896 5.50989 9.3477 5.06273V3.37523H6.6477C6.11081 3.37578 5.59607 3.58931 5.21643 3.96895C4.83679 4.34859 4.62326 4.86333 4.62271 5.40023V23.6252C4.62326 24.1621 4.83679 24.6769 5.21643 25.0565C5.59607 25.4361 6.11081 25.6497 6.6477 25.6502H21.4977C22.0346 25.6497 22.5493 25.4361 22.929 25.0565C23.3086 24.6769 23.5221 24.1621 23.5227 23.6252V5.40023Z" fill="#FDE3A7"/>
</g>
<defs>
<clipPath id="clip0_236:49">
<rect width="27" height="27" fill="white"/>
</clipPath>
</defs>
</svg>
